<?xml version="1.0" encoding="UTF-8"?>
<svg width="10px" height="10px" viewBox="0 0 10 10" version="1.1" xmlns="http://www.w3.org/2000/svg" xmlns:xlink="http://www.w3.org/1999/xlink">
    <!-- Generator: Sketch 52.4 (67378) - http://www.bohemiancoding.com/sketch -->
    <title>cross</title>
    <desc>Created with Sketch.</desc>
    <g id="Page-1" stroke="none" stroke-width="1" fill="none" fill-rule="evenodd">
        <g id="cross" fill="#999999">
            <path d="M5.4713535,4.9999992 L9.902345,0.56900843 C10.0325517,0.43880174 10.0325517,0.2278617 9.902345,0.09765502 C9.7721383,-0.03255167 9.5611982,-0.03255167 9.4309915,0.09765502 L5,4.5286458 L0.56900852,0.09765502 C0.43880181,-0.03255167 0.22786174,-0.03255167 0.09765503,0.09765502 C-0.03255168,0.2278617 -0.03255168,0.43880174 0.09765503,0.56900843 L4.5286465,4.9999992 L0.09765503,9.4309899 C-0.03255168,9.5611966 -0.03255168,9.7721366 0.09765503,9.9023433 C0.16275839,9.9674467 0.24804508,10 0.33333178,10 C0.41861847,10 0.50390517,9.9674467 0.56900852,9.9023433 L5,5.4713526 L9.4309915,9.9023433 C9.4960948,9.9674467 9.5813815,10 9.6666682,10 C9.7519549,10 9.8372416,9.9674467 9.902345,9.9023433 C10.0325517,9.7721366 10.0325517,9.5611966 9.902345,9.4309899 L5.4713535,4.9999992 Z" id="icon-Delete"></path>
        </g>
    </g>
</svg>