<?xml version="1.0" encoding="UTF-8" standalone="no"?>
<svg width="110px" height="94px" viewBox="0 0 110 94" version="1.1" xmlns="http://www.w3.org/2000/svg" xmlns:xlink="http://www.w3.org/1999/xlink">
    <!-- Generator: Sketch 39.1 (31720) - http://www.bohemiancoding.com/sketch -->
    <title>icon-Hammer</title>
    <desc>Created with Sketch.</desc>
    <defs></defs>
    <g id="Scrivener" stroke="none" stroke-width="1" fill="none" fill-rule="evenodd">
        <path d="M44.6685207,25.7474712 L45.5046022,24.9984365 C46.3525002,24.2388155 46.7794139,23.146307 46.6746619,21.9989075 C46.0323149,15.0242055 58.766597,7.10219074 66.405585,3.51479647 L67.8068897,2.78350632 L66.9431801,0 L65.3659711,0.0301015314 C43.6012786,0.456835007 35.2962261,9.05347825 35.0709106,9.30668525 L22.4927683,20.5752821 C18.0002922,24.5982632 17.741377,27.4543674 18.4351117,29.217963 L13.1639135,33.940362 C12.9326686,34.1457607 12.6638711,34.1776329 12.523543,34.1776329 C12.3851913,34.1776329 12.1163938,34.1457607 11.8851489,33.940362 L10.8060059,32.9735717 C9.48375935,31.7889879 7.17526308,31.7907586 5.85696941,32.9735717 L1.02256713,37.3046509 C-0.341184941,38.5264189 -0.341184941,40.5166613 1.02454359,41.7384294 L12.8457047,52.3288564 C13.5058397,52.920263 14.385361,53.2460678 15.3202229,53.2460678 C16.2570613,53.2460678 17.1346061,52.920263 17.7947412,52.3288564 L22.6291435,47.9977772 C23.9909191,46.7760092 23.9928955,44.7875374 22.627167,43.5639987 L21.5500005,42.5972084 C21.3187556,42.3918097 21.2851559,42.1509974 21.2851559,42.0252793 C21.2851559,41.8995611 21.3187556,41.6587488 21.5500005,41.4515795 L26.7559758,36.7893835 C26.7579523,36.7911541 26.7599287,36.7911541 26.7619052,36.7929248 C27.4002993,37.0425905 28.0861282,37.1700793 28.8016039,37.1700793 C30.4520565,37.1700793 32.0470944,36.4775279 33.362289,35.651814 L96.1749093,91.9265357 C97.6691072,93.2633978 99.6534653,94 101.766293,94 C103.87912,94 105.861502,93.2633978 107.3557,91.9265357 C110.436989,89.1642775 110.436989,84.6720666 107.3557,81.9098084 L44.6685207,25.7474712 Z" id="icon-Hammer" fill="#999999"></path>
    </g>
</svg>