<?xml version="1.0" encoding="UTF-8" ?>
<!DOCTYPE svg PUBLIC "-//W3C//DTD SVG 1.1//EN" "http://www.w3.org/Graphics/SVG/1.1/DTD/svg11.dtd">
<svg width="84pt" height="84pt" viewBox="0 0 84 84" version="1.1" xmlns="http://www.w3.org/2000/svg">
<g id="#6d9ee1ff">
<path fill="#6d9ee1" opacity="1.00" d=" M 67.53 4.52 C 68.73 2.24 71.91 1.38 74.03 2.90 C 76.65 4.62 79.27 6.35 81.79 8.21 C 83.66 9.63 83.96 12.59 82.44 14.38 C 68.19 35.45 53.89 56.49 39.63 77.55 C 38.37 79.53 36.49 81.40 34.03 81.63 C 31.49 81.74 29.12 80.39 27.42 78.59 C 19.07 70.22 10.69 61.89 2.36 53.49 C 0.64 51.95 0.59 48.91 2.23 47.29 C 4.38 45.06 6.54 42.84 8.80 40.73 C 10.50 39.05 13.45 39.15 15.02 40.95 C 20.55 46.45 26.07 51.97 31.57 57.50 C 43.60 39.87 55.52 22.16 67.53 4.52 Z" />
</g>
</svg>
