<?xml version="1.0" encoding="UTF-8" ?>
<!DOCTYPE svg PUBLIC "-//W3C//DTD SVG 1.1//EN" "http://www.w3.org/Graphics/SVG/1.1/DTD/svg11.dtd">
<svg width="600pt" height="600pt" viewBox="0 0 600 600" version="1.1" xmlns="http://www.w3.org/2000/svg">
<g id="#000000ff">
<path fill="#000000" opacity="1.00" d=" M 105.66 0.00 L 494.32 0.00 C 515.15 1.55 535.82 7.95 552.96 20.07 C 569.11 31.28 582.06 47.00 590.04 64.97 C 595.89 77.77 598.77 91.70 600.00 105.66 L 600.00 494.32 C 598.60 511.26 594.38 528.13 586.05 543.04 C 576.67 560.23 562.53 574.77 545.59 584.61 C 530.06 593.83 512.24 598.55 494.33 600.00 L 105.68 600.00 C 88.98 598.62 72.36 594.52 57.61 586.42 C 40.35 577.16 25.70 563.10 15.74 546.23 C 6.29 530.55 1.42 512.50 0.00 494.33 L 0.00 105.67 C 1.11 93.21 3.42 80.77 8.17 69.15 C 18.25 43.47 38.51 22.02 63.61 10.55 C 76.78 4.33 91.20 1.23 105.66 0.00 M 99.40 38.65 C 71.86 43.31 48.12 64.71 40.50 91.56 C 36.66 103.67 37.59 116.49 37.50 129.00 C 37.50 248.33 37.50 367.67 37.50 487.00 C 37.35 503.02 42.58 519.01 52.14 531.87 C 62.44 545.89 77.73 556.20 94.65 560.32 C 107.51 563.63 120.88 562.18 134.00 562.50 C 248.33 562.50 362.66 562.50 477.00 562.50 C 484.31 562.46 491.67 562.78 498.92 561.61 C 517.38 558.82 534.54 548.72 546.12 534.11 C 556.75 520.88 562.64 503.97 562.49 487.00 C 562.50 362.00 562.52 237.00 562.48 112.01 C 562.49 90.12 552.12 68.63 535.22 54.77 C 521.83 43.59 504.45 37.34 487.00 37.50 C 362.33 37.50 237.67 37.50 113.00 37.50 C 108.44 37.52 103.88 37.86 99.40 38.65 Z" />
</g>
</svg>
