<?xml version="1.0" encoding="UTF-8" standalone="no"?>
<svg width="23px" height="29px" viewBox="0 0 23 29" version="1.1" xmlns="http://www.w3.org/2000/svg" xmlns:xlink="http://www.w3.org/1999/xlink">
    <!-- Generator: Sketch 39.1 (31720) - http://www.bohemiancoding.com/sketch -->
    <title>Shape</title>
    <desc>Created with Sketch.</desc>
    <defs></defs>
    <g id="Page-1" stroke="none" stroke-width="1" fill="none" fill-rule="evenodd">
        <g id="noun_593891_cc" transform="translate(-40.000000, -1.000000)" fill="#000000">
            <g id="Group" transform="translate(40.000000, 1.000000)">
                <g id="Shape">
                    <path d="M18.6467017,13.5 L7,13.5 L7,15.5 L18.6467017,15.5 L14,20.1 L15.4142136,21.5 L21.7781746,15.2 L22.4852814,14.5 L15.4142136,7.5 L14,8.9 L18.6467017,13.5 L18.6467017,13.5 L18.6467017,13.5 Z M20,0 L0,0 L0,29 L20,29 L20,25 L18,25 L18,27 L2,27 L2,2 L18,2 L18,4 L20,4 L20,0 L20,0 L20,0 Z"></path>
                </g>
            </g>
        </g>
    </g>
</svg>