<?xml version="1.0" encoding="UTF-8" standalone="no"?>
<svg width="16px" height="16px" viewBox="0 0 16 16" version="1.1" xmlns="http://www.w3.org/2000/svg" xmlns:xlink="http://www.w3.org/1999/xlink">
    <!-- Generator: Sketch 39.1 (31720) - http://www.bohemiancoding.com/sketch -->
    <title>icon-Settings</title>
    <desc>Created with Sketch.</desc>
    <defs></defs>
    <g id="Symbols" stroke="none" stroke-width="1" fill="none" fill-rule="evenodd">
        <g id="Sidebar" transform="translate(-201.000000, -22.000000)" stroke-width="0.551724138" stroke="#666666">
            <g id="icon-Settings">
                <g transform="translate(201.000000, 22.000000)">
                    <path d="M4.55172414,2.02731034 C7.8502069,0.123034483 12.0681379,1.25296552 13.9726897,4.55172414 C15.8769655,7.8502069 14.7467586,12.0681379 11.4482759,13.9724138 C8.1497931,15.8769655 3.93186207,14.7467586 2.02731034,11.4482759 C0.123034483,8.1497931 1.25324138,3.93186207 4.55172414,2.02731034 L4.55172414,2.02731034 L4.55172414,2.02731034 Z" id="Stroke-173"></path>
                    <path d="M6.21517241,1.33848276 L5.92937931,0.272551724 M10.0706207,15.7274483 L9.78482759,14.6615172 M14.8965517,8 L16,8 M0,8 L1.10344828,8 M12.8766897,12.8764138 L13.6568276,13.6568276 M2.34317241,2.34317241 L3.12331034,3.12331034 M12.8766897,3.12331034 L13.6568276,2.34317241 M2.34317241,13.6568276 L3.12331034,12.8764138 M4.55172414,2.02731034 L4,1.07172414 M12,14.9282759 L11.4482759,13.9724138 M8,14.8965517 L8,16 M8,0 L8,1.10344828 M2.02731034,4.55172414 L1.07172414,4 M14.9282759,12 L13.9726897,11.4482759 M1.33848276,6.21489655 L0.272551724,5.92937931 M15.7274483,10.0706207 L14.6615172,9.78482759 M1.33848276,9.78482759 L0.272551724,10.0706207 M15.7274483,5.92937931 L14.6615172,6.21489655 M2.02731034,11.4482759 L1.07172414,12 M14.9282759,4 L13.9726897,4.55172414 M11.4482759,2.02731034 L12,1.07172414 M4,14.9282759 L4.55172414,13.9724138 M9.78482759,1.33848276 L10.0706207,0.272551724 M5.92937931,15.7274483 L6.21517241,14.6615172 M8,1.10344828 L8,5.24137931 M2.02731034,11.4482759 L5.61131034,9.37903448 M13.9726897,11.4482759 L10.3889655,9.37903448" id="Stroke-174"></path>
                    <path d="M6.62096552,5.61131034 C7.94013793,4.84965517 9.62703448,5.3017931 10.3886897,6.62096552 C11.1503448,7.94013793 10.6982069,9.62703448 9.37903448,10.3886897 C8.05986207,11.1503448 6.37296552,10.6982069 5.61131034,9.37903448 C4.84965517,8.05986207 5.3017931,6.37296552 6.62096552,5.61131034 L6.62096552,5.61131034 L6.62096552,5.61131034 Z" id="Stroke-176"></path>
                    <path d="M7.31034483,6.8057931 C7.9702069,6.42482759 8.81351724,6.65075862 9.1942069,7.31034483 C9.57517241,7.96993103 9.34924138,8.81351724 8.68965517,9.1942069 C8.03006897,9.57517241 7.18648276,9.34896552 6.8057931,8.68937931 C6.42482759,8.0297931 6.65075862,7.18648276 7.31034483,6.8057931 L7.31034483,6.8057931 L7.31034483,6.8057931 Z" id="Stroke-178"></path>
                </g>
            </g>
        </g>
    </g>
</svg>