<?xml version="1.0" encoding="UTF-8"?>
<svg width="18px" height="16px" viewBox="0 0 18 16" version="1.1" xmlns="http://www.w3.org/2000/svg" xmlns:xlink="http://www.w3.org/1999/xlink">
    <!-- Generator: Sketch 52.1 (67048) - http://www.bohemiancoding.com/sketch -->
    <title>Icon - Delete</title>
    <desc>Created with Sketch.</desc>
    <g id="Page-1" stroke="none" stroke-width="1" fill="none" fill-rule="evenodd">
        <g id="Models" transform="translate(-1426.000000, -335.000000)" fill="#C76B6B" fill-rule="nonzero">
            <g id="Table" transform="translate(400.000000, 168.000000)">
                <g id="Icons/18px/Delete" transform="translate(1026.000000, 166.000000)">
                    <path d="M6,5.08333333 L4.35,5.08333333 L4.35,14.8333333 C4.35,15.05865 4.54681718,15.25 4.8,15.25 L13.2,15.25 C13.4531828,15.25 13.65,15.05865 13.65,14.8333333 L13.65,5.08333333 L12,5.08333333 L6,5.08333333 Z M12.75,3.58333333 L16.8,3.58333333 C17.2142136,3.58333333 17.55,3.91911977 17.55,4.33333333 C17.55,4.7475469 17.2142136,5.08333333 16.8,5.08333333 L15.15,5.08333333 L15.15,14.8333333 C15.15,15.8966811 14.2723006,16.75 13.2,16.75 L4.8,16.75 C3.72769942,16.75 2.85,15.8966811 2.85,14.8333333 L2.85,5.08333333 L1.2,5.08333333 C0.785786438,5.08333333 0.45,4.7475469 0.45,4.33333333 C0.45,3.91911977 0.785786438,3.58333333 1.2,3.58333333 L5.25,3.58333333 L5.25,3.16666667 C5.25,2.10331888 6.12769942,1.25 7.2,1.25 L10.8,1.25 C11.8723006,1.25 12.75,2.10331888 12.75,3.16666667 L12.75,3.58333333 Z M11.25,3.58333333 L11.25,3.16666667 C11.25,2.94135004 11.0531828,2.75 10.8,2.75 L7.2,2.75 C6.94681718,2.75 6.75,2.94135004 6.75,3.16666667 L6.75,3.58333333 L11.25,3.58333333 Z M7.95,12.5 C7.95,12.9142136 7.61421356,13.25 7.2,13.25 C6.78578644,13.25 6.45,12.9142136 6.45,12.5 L6.45,7.83333333 C6.45,7.41911977 6.78578644,7.08333333 7.2,7.08333333 C7.61421356,7.08333333 7.95,7.41911977 7.95,7.83333333 L7.95,12.5 Z M11.55,12.5 C11.55,12.9142136 11.2142136,13.25 10.8,13.25 C10.3857864,13.25 10.05,12.9142136 10.05,12.5 L10.05,7.83333333 C10.05,7.41911977 10.3857864,7.08333333 10.8,7.08333333 C11.2142136,7.08333333 11.55,7.41911977 11.55,7.83333333 L11.55,12.5 Z" id="🎨"></path>
                </g>
            </g>
        </g>
    </g>
</svg>