<?xml version="1.0" encoding="UTF-8"?>
<svg width="18px" height="18px" viewBox="0 0 18 18" version="1.1" xmlns="http://www.w3.org/2000/svg" xmlns:xlink="http://www.w3.org/1999/xlink">
    <!-- Generator: Sketch 52.1 (67048) - http://www.bohemiancoding.com/sketch -->
    <title>Icon - Edit</title>
    <desc>Created with Sketch.</desc>
    <g id="Page-1" stroke="none" stroke-width="1" fill="none" fill-rule="evenodd">
        <g id="Models" transform="translate(-1388.000000, -234.000000)" fill="#313133" fill-rule="nonzero">
            <g id="Table" transform="translate(400.000000, 168.000000)">
                <g id="Icons/18px/Edit" transform="translate(988.000000, 66.000000)">
                    <path d="M16.3225298,1.67520542 L16.3246049,1.67727969 C16.9227906,2.27759488 17.2561236,3.09216151 17.2503854,3.93961156 C17.2446472,4.78706161 16.9003142,5.59703967 16.3003301,6.18299675 L6.63366342,15.8496634 C6.53864058,15.9446863 6.41983229,16.012433 6.28966294,16.0458189 L1.68632961,17.2264856 C1.13403241,17.3681392 0.63191054,16.8660856 0.773489121,16.3137691 L1.95348912,11.7104358 C1.98686596,11.5802284 2.05462262,11.4613839 2.14966991,11.3663366 L11.8103232,1.70575228 C12.4026737,1.09973473 13.2126487,0.755576235 14.0600586,0.749839417 C14.9074684,0.7441026 15.7220288,1.07726327 16.3225298,1.67520542 Z M14.0702131,2.24980505 C13.6230283,2.25283241 13.1955981,2.43444753 12.8769968,2.76033009 L3.3555244,12.2818024 L2.5411756,15.4586829 L5.71816031,14.6438473 L15.245946,5.11613393 C15.5657539,4.80376408 15.7473929,4.376493 15.7504198,3.92945509 C15.7534435,3.48290621 15.5779949,3.05366571 15.2630969,2.7370933 C14.9463076,2.42220486 14.5169088,2.24678099 14.0702131,2.24980505 Z M11.5403366,3.03699675 C11.2474434,2.74410353 11.2474434,2.2692298 11.5403366,1.97633658 C11.8332298,1.68344336 12.3081035,1.68344336 12.6009968,1.97633658 L16.0236634,5.39900325 C16.3165566,5.69189647 16.3165566,6.1667702 16.0236634,6.45966342 C15.7307702,6.75255664 15.2558965,6.75255664 14.9630032,6.45966342 L11.5403366,3.03699675 Z M2.15080158,12.4267947 C1.85765177,12.1341583 1.85723558,11.6592847 2.14987199,11.3661349 C2.4425084,11.0729851 2.91738195,11.0725689 3.21053175,11.3652053 L6.63653175,14.7852053 C6.92968156,15.0778417 6.93009775,15.5527153 6.63746134,15.8458651 C6.34482494,16.1390149 5.86995138,16.1394311 5.57680158,15.8467947 L2.15080158,12.4267947 Z" id="🎨"></path>
                </g>
            </g>
        </g>
    </g>
</svg>