<?xml version="1.0" encoding="UTF-8" standalone="no"?>
<svg width="30px" height="30px" viewBox="0 0 30 30" version="1.1" xmlns="http://www.w3.org/2000/svg" xmlns:xlink="http://www.w3.org/1999/xlink">
    <!-- Generator: Sketch 47.1 (45422) - http://www.bohemiancoding.com/sketch -->
    <title>search</title>
    <desc>Created with Sketch.</desc>
    <defs></defs>
    <g id="Page-1" stroke="none" stroke-width="1" fill="none" fill-rule="evenodd">
        <g id="search" fill-rule="nonzero" fill="#2C2C30">
            <path d="M11.644062,0 C5.21476346,0 0.00171288744,5.21305057 0.00171288744,11.642398 C0.00171288744,18.0717455 5.21476346,23.2847961 11.6441109,23.2847961 C14.1164437,23.2847961 16.4092659,22.5136542 18.2939804,21.2001142 L18.2953507,21.1987439 L26.9298695,29.8333116 C27.0900979,29.99354 27.3448777,29.9976509 27.5092659,29.8333116 L29.8363948,27.5061827 C29.9966232,27.3459543 29.9884013,27.080261 29.8350245,26.9268352 L21.2017781,18.2936378 C22.5153181,16.407553 23.28646,14.1146819 23.28646,11.642398 C23.28646,5.21305057 18.0734095,0 11.644062,0 Z M11.644062,20.5453997 C6.72685155,20.5453997 2.74106036,16.5596085 2.74106036,11.642398 C2.74106036,6.7251876 6.72690049,2.73939641 11.644062,2.73939641 C16.5612235,2.73939641 20.5470636,6.7251876 20.5470636,11.642398 C20.5470636,16.5596085 16.5612724,20.5453997 11.644062,20.5453997 Z" id="Shape"></path>
        </g>
    </g>
</svg>