
<svg viewBox="0 0 18 18" version="1.1" xmlns="http://www.w3.org/2000/svg" xmlns:xlink="http://www.w3.org/1999/xlink">
    <!-- Generator: Sketch 51.3 (57544) - http://www.bohemiancoding.com/sketch -->
    <desc>Created with Sketch.</desc>
    <defs></defs>
    <g id="Symbols" stroke="none" stroke-width="1" fill="none" fill-rule="evenodd">
        <g id="Icons/18px/Sidebar" fill="#313133" fill-rule="nonzero">
            <path d="M2,0 L16,0 C17.1045695,-2.02906125e-16 18,0.8954305 18,2 L18,16 C18,17.1045695 17.1045695,18 16,18 L2,18 C0.8954305,18 1.3527075e-16,17.1045695 0,16 L0,2 C-1.3527075e-16,0.8954305 0.8954305,2.02906125e-16 2,0 Z M5,2 C4.44771525,2 4,2.44771525 4,3 L4,15 C4,15.5522847 4.44771525,16 5,16 L7,16 C7.55228475,16 8,15.5522847 8,15 L8,3 C8,2.44771525 7.55228475,2 7,2 L5,2 Z" id="🎨"></path>
        </g>
    </g>
</svg>