<?xml version="1.0" encoding="iso-8859-1"?>
<!-- Generator: Adobe Illustrator 18.0.0, SVG Export Plug-In . SVG Version: 6.00 Build 0)  -->
<!DOCTYPE svg PUBLIC "-//W3C//DTD SVG 1.1//EN" "http://www.w3.org/Graphics/SVG/1.1/DTD/svg11.dtd">
<svg xmlns="http://www.w3.org/2000/svg" xmlns:xlink="http://www.w3.org/1999/xlink" version="1.1" id="Capa_1" x="0px" y="0px" viewBox="0 0 58 58" style="enable-background:new 0 0 58 58;" xml:space="preserve" width="512px" height="512px">
<path d="M50.949,12.187l-0.771-0.771L40.085,1.322l-0.771-0.771C38.958,0.195,38.486,0,37.985,0H8.963C7.604,0,6.5,1.104,6.5,2.463  v53.074C6.5,56.896,7.604,58,8.963,58h40.074c1.358,0,2.463-1.104,2.463-2.463V13.515C51.5,13.014,51.305,12.542,50.949,12.187z   M47.935,12H39.5V3.565L47.935,12z M49.037,56H29.5V44h4V34h-4v-2h2v-2h-2v-2h2v-2h-2v-2h2v-2h-2v-2h-2v2h-2v2h2v2h-2v2h2v2h-2v2h2  v2h-4v10h4v12H8.963C8.708,56,8.5,55.792,8.5,55.537V2.463C8.5,2.208,8.708,2,8.963,2h28.595C37.525,2.126,37.5,2.256,37.5,2.392V14  h11.608c0.135,0,0.265-0.025,0.392-0.058v41.595C49.5,55.792,49.292,56,49.037,56z M31.5,36v1h-6v-1H31.5z M25.5,39h6v3h-6V39z" fill="#666666"/>
<g>
</g>
<g>
</g>
<g>
</g>
<g>
</g>
<g>
</g>
<g>
</g>
<g>
</g>
<g>
</g>
<g>
</g>
<g>
</g>
<g>
</g>
<g>
</g>
<g>
</g>
<g>
</g>
<g>
</g>
</svg>
