<?xml version="1.0" encoding="iso-8859-1"?>
<!-- Generator: Adobe Illustrator 18.0.0, SVG Export Plug-In . SVG Version: 6.00 Build 0)  -->
<!DOCTYPE svg PUBLIC "-//W3C//DTD SVG 1.1//EN" "http://www.w3.org/Graphics/SVG/1.1/DTD/svg11.dtd">
<svg xmlns="http://www.w3.org/2000/svg" xmlns:xlink="http://www.w3.org/1999/xlink" version="1.1" id="Capa_1" x="0px" y="0px" viewBox="0 0 58 58" style="enable-background:new 0 0 58 58;" xml:space="preserve" width="512px" height="512px">
<g>
	<path d="M50.95,12.187l-0.771-0.771L40.084,1.321L39.313,0.55C38.964,0.201,38.48,0,37.985,0H8.963C7.777,0,6.5,0.916,6.5,2.926V39   v16.537V56c0,0.837,0.842,1.653,1.838,1.91c0.05,0.013,0.098,0.032,0.15,0.042C8.644,57.983,8.803,58,8.963,58h40.074   c0.16,0,0.319-0.017,0.475-0.048c0.052-0.01,0.1-0.029,0.15-0.042C50.658,57.653,51.5,56.837,51.5,56v-0.463V39V13.978   C51.5,13.211,51.408,12.645,50.95,12.187z M47.935,12H39.5V3.565L47.935,12z M8.963,56c-0.071,0-0.135-0.026-0.198-0.049   C8.609,55.877,8.5,55.721,8.5,55.537V41h41v14.537c0,0.184-0.109,0.339-0.265,0.414C49.172,55.974,49.108,56,49.037,56H8.963z    M8.5,39V2.926C8.5,2.709,8.533,2,8.963,2h28.595C37.525,2.126,37.5,2.256,37.5,2.391V14h11.609c0.135,0,0.264-0.025,0.39-0.058   c0,0.015,0.001,0.021,0.001,0.036V39H8.5z" fill="#666666"/>
	<polygon points="16.414,54 22.717,54 22.717,52.756 18.082,52.756 18.082,49.461 22.293,49.461 22.293,48.34 18.082,48.34    18.082,45.168 22.717,45.168 22.717,43.924 16.414,43.924  " fill="#666666"/>
	<polygon points="30.428,43.924 28.5,48.025 28.363,48.025 26.586,43.924 24.713,43.924 27.434,49.105 24.877,54 26.777,54    28.5,50.199 28.637,50.199 30.236,54 32.137,54 29.58,49.105 32.301,43.924  " fill="#666666"/>
	<polygon points="34.598,54 40.9,54 40.9,52.756 36.266,52.756 36.266,49.461 40.477,49.461 40.477,48.34 36.266,48.34    36.266,45.168 40.9,45.168 40.9,43.924 34.598,43.924  " fill="#666666"/>
	<path d="M39.798,15.045c-0.527-0.165-1.088,0.129-1.253,0.656l-5,16c-0.165,0.527,0.129,1.088,0.656,1.253   C34.301,32.985,34.401,33,34.5,33c0.426,0,0.82-0.274,0.954-0.702l5-16C40.619,15.771,40.325,15.21,39.798,15.045z" fill="#666666"/>
	<circle cx="30" cy="20.5" r="1.5" fill="#666666"/>
	<circle cx="30" cy="27.5" r="1.5" fill="#666666"/>
	<path d="M22.5,19h2c0.552,0,1-0.448,1-1s-0.448-1-1-1h-2c-3.86,0-7,3.14-7,7s3.14,7,7,7h2c0.552,0,1-0.448,1-1s-0.448-1-1-1h-2   c-2.757,0-5-2.243-5-5S19.743,19,22.5,19z" fill="#666666"/>
</g>
<g>
</g>
<g>
</g>
<g>
</g>
<g>
</g>
<g>
</g>
<g>
</g>
<g>
</g>
<g>
</g>
<g>
</g>
<g>
</g>
<g>
</g>
<g>
</g>
<g>
</g>
<g>
</g>
<g>
</g>
</svg>
