<?xml version="1.0" encoding="UTF-8"?>
<svg width="398px" height="512px" viewBox="0 0 398 512" version="1.1" xmlns="http://www.w3.org/2000/svg" xmlns:xlink="http://www.w3.org/1999/xlink">
    <title>Group 2</title>
    <g id="Page-1" stroke="none" stroke-width="1" fill="none" fill-rule="evenodd">
        <g id="Group-2" transform="translate(0.379310, 0.000000)" fill="#666666" fill-rule="nonzero">
            <g id="doc" transform="translate(0.000000, 0.000000)">
                <path d="M392.386207,107.581793 L385.580138,100.775724 L296.465655,11.6612414 L289.659586,4.85517241 C286.578759,1.77434483 282.306207,0 277.936552,0 L21.7423448,0 C11.2728276,0 0,8.08606897 0,25.8295172 L0,344.275862 L0,490.257655 L0,494.344828 C0,501.733517 7.43282759,508.936828 16.2251034,511.205517 C16.6664828,511.320276 17.0902069,511.488 17.5492414,511.576276 C18.9263448,511.849931 20.329931,512 21.7423448,512 L375.499034,512 C376.911448,512 378.315034,511.849931 379.692138,511.576276 C380.151172,511.488 380.574897,511.320276 381.016276,511.205517 C389.808552,508.936828 397.241379,501.733517 397.241379,494.344828 L397.241379,490.257655 L397.241379,344.275862 L397.241379,123.392 C397.241379,116.621241 396.429241,111.624828 392.386207,107.581793 Z M365.771034,105.931034 L291.310345,105.931034 L291.310345,31.4703448 L365.771034,105.931034 Z M21.7423448,494.344828 C21.1155862,494.344828 20.5506207,494.11531 19.9944828,493.912276 C18.6173793,493.259034 17.6551724,491.881931 17.6551724,490.257655 L17.6551724,361.931034 L379.586207,361.931034 L379.586207,490.257655 C379.586207,491.881931 378.624,493.250207 377.246897,493.912276 C376.690759,494.11531 376.125793,494.344828 375.499034,494.344828 L21.7423448,494.344828 Z M17.6551724,344.275862 L17.6551724,25.8295172 C17.6551724,23.913931 17.9464828,17.6551724 21.7423448,17.6551724 L274.167172,17.6551724 C273.875862,18.7674483 273.655172,19.9150345 273.655172,21.1067586 L273.655172,123.586207 L376.134621,123.586207 C377.326345,123.586207 378.465103,123.365517 379.577379,123.074207 C379.577379,123.206621 379.586207,123.259586 379.586207,123.392 L379.586207,344.275862 L17.6551724,344.275862 Z" id="Shape"></path>
            </g>
            <g id="Group" transform="translate(75.077690, 96.983000)">
                <path d="M140.052,47.127 C137.159,34.563 134.805,28.016 131.662,23.832 C127.477,17.546 123.024,15.716 103.399,15.716 L84.813,15.716 L84.813,144.507 C84.813,165.192 86.904,167.802 111.771,169.379 L111.771,176.698 L36.651,176.698 L36.651,169.379 C60.466,167.802 62.565,165.191 62.565,144.507 L62.565,15.715 L46.333,15.715 C24.609,15.715 19.365,17.812 15.968,23.831 C12.825,28.282 10.724,35.609 7.594,47.126 L0,47.126 C1.308,31.419 2.613,14.402 3.143,-1.42108547e-14 L8.377,-1.42108547e-14 C12.047,6.022 15.443,6.545 22.773,6.545 L126.172,6.545 C133.241,6.545 135.335,4.979 139.524,-1.42108547e-14 L145.019,-1.42108547e-14 C145.019,12.042 146.327,31.158 147.634,46.333 L140.052,47.127 Z" id="Path"></path>
                <path d="M234.795,85.438 C231.915,72.871 229.564,66.327 226.42,62.143 C222.233,55.857 217.777,54.027 198.145,54.027 L179.561,54.027 L179.561,182.818 C179.561,203.506 181.66,206.116 206.519,207.687 L206.519,215.012 L131.388,215.012 L131.388,207.687 C155.213,206.116 157.312,203.505 157.312,182.818 L157.312,54.027 L141.07,54.027 C119.357,54.027 114.112,56.123 110.706,62.143 C107.563,66.594 105.475,73.921 102.332,85.438 L94.749,85.438 C96.057,69.729 97.352,52.714 97.881,38.312 L103.126,38.312 C106.785,44.334 110.195,44.859 117.522,44.859 L220.91,44.859 C227.993,44.859 230.07,43.293 234.263,38.312 L239.763,38.312 C239.763,50.354 241.081,69.47 242.39,84.645 L234.795,85.438 Z" id="Path"></path>
            </g>
            <polygon id="Path" points="287.261241 397.638621 313.814621 397.638621 313.814621 476.689655 328.415448 476.689655 328.415448 397.638621 354.968828 397.638621 354.968828 387.742897 287.261241 387.742897"></polygon>
            <polygon id="Path" points="48.5886897 476.689655 63.3131034 476.689655 63.3131034 436.621241 100.486069 436.621241 100.486069 426.725517 63.3131034 426.725517 63.3131034 398.724414 104.220138 398.724414 104.220138 387.742897 48.5886897 387.742897"></polygon>
            <polygon id="Path" points="255.140414 449.050483 220.262621 387.742897 205.538207 387.742897 205.538207 476.689655 220.262621 476.689655 220.262621 415.382069 255.140414 476.689655 269.864828 476.689655 269.864828 387.742897 255.140414 387.742897"></polygon>
            <path d="M178.456276,397.876966 C175.119448,394.089931 171.217655,391.220966 166.750897,389.243586 C162.284138,387.266207 157.393655,386.286345 152.088276,386.286345 C146.782897,386.286345 141.892414,387.266207 137.425655,389.243586 C132.958897,391.220966 129.057103,394.089931 125.720276,397.876966 C122.383448,401.664 119.761655,406.386759 117.872552,412.054069 C115.983448,417.721379 115.038897,424.306759 115.038897,431.783724 C115.038897,439.26069 115.983448,445.863724 117.872552,451.575172 C119.761655,457.286621 122.383448,462.035862 125.720276,465.814069 C129.057103,469.592276 132.958897,472.452414 137.425655,474.385655 C141.892414,476.318897 146.782897,477.281103 152.088276,477.281103 C157.393655,477.281103 162.284138,476.318897 166.750897,474.385655 C171.217655,472.452414 175.119448,469.601103 178.456276,465.814069 C181.793103,462.027034 184.414897,457.286621 186.304,451.575172 C188.193103,445.863724 189.137655,439.26069 189.137655,431.783724 C189.137655,424.306759 188.193103,417.721379 186.304,412.054069 C184.414897,406.386759 181.793103,401.664 178.456276,397.876966 Z M173.48,447.540966 C172.270621,451.84 170.602207,455.326897 168.474759,457.984 C166.34731,460.641103 163.928552,462.55669 161.236138,463.713103 C158.543724,464.869517 155.701241,465.460966 152.726345,465.460966 C149.830897,465.460966 147.067862,464.843034 144.454897,463.589517 C141.841931,462.336 139.502621,460.376276 137.454621,457.675034 C135.406621,454.973793 133.791172,451.504552 132.625931,447.232 C131.46069,442.959448 130.833931,437.821793 130.754483,431.783724 C130.833931,425.586759 131.478345,420.360828 132.687724,416.097103 C133.897103,411.833379 135.565517,408.35531 137.692966,405.654069 C139.820414,402.952828 142.239172,401.054897 144.931586,399.924966 C147.624,398.795034 150.466483,398.238897 153.441379,398.238897 C156.336828,398.238897 159.099862,398.839172 161.712828,400.048552 C164.325793,401.257931 166.665103,403.226483 168.713103,405.963034 C170.761103,408.699586 172.376552,412.177655 173.541793,416.406069 C174.707034,420.634483 175.333793,425.76331 175.413241,431.792552 C175.333793,437.989517 174.689379,443.241931 173.48,447.540966 Z" id="Shape"></path>
        </g>
    </g>
</svg>