<?xml version="1.0" encoding="UTF-8"?>
<svg width="512px" height="512px" viewBox="0 0 512 512" version="1.1" xmlns="http://www.w3.org/2000/svg" xmlns:xlink="http://www.w3.org/1999/xlink">
    <!-- Generator: Sketch 52.2 (67145) - http://www.bohemiancoding.com/sketch -->
    <title>Untitled 2</title>
    <desc>Created with Sketch.</desc>
    <g id="Page-1" stroke="none" stroke-width="1" fill="none" fill-rule="evenodd">
        <g id="doc" transform="translate(56.965517, 0.000000)" fill="#666666">
            <path d="M392.386207,107.581793 L385.580138,100.775724 L296.465655,11.6612414 L289.659586,4.85517241 C286.578759,1.77434483 282.306207,0 277.936552,0 L21.7423448,0 C11.2728276,0 0,8.08606897 0,25.8295172 L0,344.275862 L0,490.257655 L0,494.344828 C0,501.733517 7.43282759,508.936828 16.2251034,511.205517 C16.6664828,511.320276 17.0902069,511.488 17.5492414,511.576276 C18.9263448,511.849931 20.329931,512 21.7423448,512 L375.499034,512 C376.911448,512 378.315034,511.849931 379.692138,511.576276 C380.151172,511.488 380.574897,511.320276 381.016276,511.205517 C389.808552,508.936828 397.241379,501.733517 397.241379,494.344828 L397.241379,490.257655 L397.241379,344.275862 L397.241379,123.392 C397.241379,116.621241 396.429241,111.624828 392.386207,107.581793 Z M365.771034,105.931034 L291.310345,105.931034 L291.310345,31.4703448 L365.771034,105.931034 Z M21.7423448,494.344828 C21.1155862,494.344828 20.5506207,494.11531 19.9944828,493.912276 C18.6173793,493.259034 17.6551724,491.881931 17.6551724,490.257655 L17.6551724,361.931034 L379.586207,361.931034 L379.586207,490.257655 C379.586207,491.881931 378.624,493.250207 377.246897,493.912276 C376.690759,494.11531 376.125793,494.344828 375.499034,494.344828 L21.7423448,494.344828 Z M17.6551724,344.275862 L17.6551724,25.8295172 C17.6551724,23.913931 17.9464828,17.6551724 21.7423448,17.6551724 L274.167172,17.6551724 C273.875862,18.7674483 273.655172,19.9150345 273.655172,21.1067586 L273.655172,123.586207 L376.134621,123.586207 C377.326345,123.586207 378.465103,123.365517 379.577379,123.074207 C379.577379,123.206621 379.586207,123.259586 379.586207,123.392 L379.586207,344.275862 L17.6551724,344.275862 Z" id="Shape" fill-rule="nonzero"></path>
            <g id="Group" transform="translate(110.000000, 387.000000)">
                <path d="M166.143448,13.7724138 C162.400552,9.83531034 157.695448,6.6662069 152.01931,4.30041379 C146.343172,1.93462069 139.766621,0.742896552 132.289655,0.742896552 L105.497931,0.742896552 L105.497931,89.6896552 L139.166345,89.6896552 C140.287448,89.6896552 142.017655,89.5484138 144.356966,89.265931 C146.687448,88.9834483 149.265103,88.3478621 152.081103,87.3326897 C154.897103,86.3263448 157.810207,84.8168276 160.829241,82.8041379 C163.848276,80.7914483 166.558345,78.0372414 168.977103,74.5326897 C171.395862,71.0281379 173.382069,66.6849655 174.953379,61.4943448 C176.52469,56.3037241 177.310345,50.0449655 177.310345,42.7268966 C177.310345,37.4126897 176.383448,32.2397241 174.538483,27.2168276 C172.68469,22.2027586 169.886345,17.7183448 166.143448,13.7724138 Z M155.585655,69.6510345 C151.242483,75.9274483 144.162759,79.0612414 134.346483,79.0612414 L119.984,79.0612414 L119.984,11.7155862 L128.432,11.7155862 C135.352828,11.7155862 140.984828,12.6248276 145.328,14.4344828 C149.671172,16.2441379 153.113931,18.6187586 155.647448,21.5583448 C158.180966,24.497931 159.88469,27.7729655 160.776276,31.3922759 C161.659034,35.0115862 162.100414,38.6750345 162.100414,42.3737931 C162.100414,54.2822069 159.928828,63.3834483 155.585655,69.6510345 Z" id="Shape" fill-rule="nonzero"></path>
                <polygon id="Path" points="41.5724138 61.5649655 15.1337931 0.742896552 0.418206897 0.742896552 0.418206897 89.6896552 15.1337931 89.6896552 15.1337931 28.4968276 35.1724138 77.9842759 47.9635862 77.9842759 67.8786207 28.4968276 67.8786207 89.6896552 82.6030345 89.6896552 82.6030345 0.742896552 67.8786207 0.742896552"></polygon>
            </g>
            <path d="M62.2068966,123.586207 L115.172414,123.586207 C120.045241,123.586207 124,119.631448 124,114.758621 C124,109.885793 120.045241,105.931034 115.172414,105.931034 L62.2068966,105.931034 C57.334069,105.931034 53.3793103,109.885793 53.3793103,114.758621 C53.3793103,119.631448 57.334069,123.586207 62.2068966,123.586207 Z" id="Path"></path>
            <path d="M62.2068966,167.724138 L141.655172,167.724138 C146.528,167.724138 150.482759,163.769379 150.482759,158.896552 C150.482759,154.023724 146.528,150.068966 141.655172,150.068966 L62.2068966,150.068966 C57.334069,150.068966 53.3793103,154.023724 53.3793103,158.896552 C53.3793103,163.769379 57.334069,167.724138 62.2068966,167.724138 Z" id="Path"></path>
            <path d="M176.965517,167.724138 C179.26069,167.724138 181.555862,166.753103 183.233103,165.164138 C184.822069,163.486897 185.793103,161.191724 185.793103,158.896552 C185.793103,156.601379 184.822069,154.306207 183.233103,152.628966 C179.966897,149.362759 173.964138,149.362759 170.697931,152.628966 C169.108966,154.306207 168.137931,156.601379 168.137931,158.896552 C168.137931,161.191724 169.108966,163.486897 170.697931,165.164138 C172.375172,166.753103 174.670345,167.724138 176.965517,167.724138 Z" id="Path"></path>
            <path d="M212.275862,167.724138 L282.896552,167.724138 C287.769379,167.724138 291.724138,163.769379 291.724138,158.896552 C291.724138,154.023724 287.769379,150.068966 282.896552,150.068966 L212.275862,150.068966 C207.403034,150.068966 203.448276,154.023724 203.448276,158.896552 C203.448276,163.769379 207.403034,167.724138 212.275862,167.724138 Z" id="Path"></path>
            <path d="M55.9393103,285.042759 C54.3503448,286.72 53.3793103,289.015172 53.3793103,291.310345 C53.3793103,293.605517 54.3503448,295.90069 55.9393103,297.577931 C57.6165517,299.166897 59.9117241,300.137931 62.2068966,300.137931 C64.502069,300.137931 66.7972414,299.166897 68.4744828,297.577931 C70.0634483,295.90069 71.0344828,293.605517 71.0344828,291.310345 C71.0344828,288.926897 70.0634483,286.72 68.4744828,285.042759 C65.2082759,281.776552 59.2055172,281.776552 55.9393103,285.042759 Z" id="Path"></path>
            <path d="M168.137931,282.482759 L97.5172414,282.482759 C92.6444138,282.482759 88.6896552,286.437517 88.6896552,291.310345 C88.6896552,296.183172 92.6444138,300.137931 97.5172414,300.137931 L168.137931,300.137931 C173.010759,300.137931 176.965517,296.183172 176.965517,291.310345 C176.965517,286.437517 173.010759,282.482759 168.137931,282.482759 Z" id="Path"></path>
            <path d="M335.862069,150.068966 L318.206897,150.068966 C313.334069,150.068966 309.37931,154.023724 309.37931,158.896552 C309.37931,163.769379 313.334069,167.724138 318.206897,167.724138 L335.862069,167.724138 C340.734897,167.724138 344.689655,163.769379 344.689655,158.896552 C344.689655,154.023724 340.734897,150.068966 335.862069,150.068966 Z" id="Path"></path>
            <path d="M62.2068966,211.862069 L256.413793,211.862069 C261.286621,211.862069 265.241379,207.90731 265.241379,203.034483 C265.241379,198.161655 261.286621,194.206897 256.413793,194.206897 L62.2068966,194.206897 C57.334069,194.206897 53.3793103,198.161655 53.3793103,203.034483 C53.3793103,207.90731 57.334069,211.862069 62.2068966,211.862069 Z" id="Path"></path>
            <path d="M335.862069,194.206897 L282.896552,194.206897 C278.023724,194.206897 274.068966,198.161655 274.068966,203.034483 C274.068966,207.90731 278.023724,211.862069 282.896552,211.862069 L335.862069,211.862069 C340.734897,211.862069 344.689655,207.90731 344.689655,203.034483 C344.689655,198.161655 340.734897,194.206897 335.862069,194.206897 Z" id="Path"></path>
            <path d="M62.2068966,256 L97.5172414,256 C102.390069,256 106.344828,252.045241 106.344828,247.172414 C106.344828,242.299586 102.390069,238.344828 97.5172414,238.344828 L62.2068966,238.344828 C57.334069,238.344828 53.3793103,242.299586 53.3793103,247.172414 C53.3793103,252.045241 57.334069,256 62.2068966,256 Z" id="Path"></path>
            <path d="M221.103448,238.344828 L132.827586,238.344828 C127.954759,238.344828 124,242.299586 124,247.172414 C124,252.045241 127.954759,256 132.827586,256 L221.103448,256 C225.976276,256 229.931034,252.045241 229.931034,247.172414 C229.931034,242.299586 225.976276,238.344828 221.103448,238.344828 Z" id="Path"></path>
            <path d="M335.862069,238.344828 L256.413793,238.344828 C251.540966,238.344828 247.586207,242.299586 247.586207,247.172414 C247.586207,252.045241 251.540966,256 256.413793,256 L335.862069,256 C340.734897,256 344.689655,252.045241 344.689655,247.172414 C344.689655,242.299586 340.734897,238.344828 335.862069,238.344828 Z" id="Path"></path>
        </g>
    </g>
</svg>