<?xml version="1.0" encoding="iso-8859-1"?>
<!-- Generator: Adobe Illustrator 18.0.0, SVG Export Plug-In . SVG Version: 6.00 Build 0)  -->
<!DOCTYPE svg PUBLIC "-//W3C//DTD SVG 1.1//EN" "http://www.w3.org/Graphics/SVG/1.1/DTD/svg11.dtd">
<svg xmlns="http://www.w3.org/2000/svg" xmlns:xlink="http://www.w3.org/1999/xlink" version="1.1" id="Capa_1" x="0px" y="0px" viewBox="0 0 58 58" style="enable-background:new 0 0 58 58;" xml:space="preserve" width="512px" height="512px">
<g>
	<path d="M50.95,12.187l-0.77-0.77l0,0L40.084,1.321c0,0-0.001-0.001-0.002-0.001l-0.768-0.768C38.965,0.201,38.48,0,37.985,0H8.963   C7.605,0,6.5,1.104,6.5,2.463V39v16.537C6.5,56.896,7.605,58,8.963,58h40.074c1.358,0,2.463-1.104,2.463-2.463V39V13.515   C51.5,13.014,51.305,12.543,50.95,12.187z M47.935,12H39.5V3.565L47.935,12z M49.5,55.537c0,0.255-0.208,0.463-0.463,0.463H8.963   C8.708,56,8.5,55.792,8.5,55.537V41h41V55.537z M8.5,39V2.463C8.5,2.208,8.708,2,8.963,2h28.595   C37.525,2.126,37.5,2.256,37.5,2.392V14h11.609c0.135,0,0.265-0.025,0.391-0.058V39H8.5z" fill="#666666"/>
	<path d="M18.581,50.363h1.217c0.528,0,1.012-0.077,1.449-0.232s0.811-0.374,1.121-0.656c0.31-0.282,0.551-0.631,0.725-1.046   c0.173-0.415,0.26-0.877,0.26-1.388c0-0.483-0.103-0.918-0.308-1.306s-0.474-0.718-0.807-0.991   c-0.333-0.273-0.709-0.479-1.128-0.615c-0.419-0.137-0.843-0.205-1.271-0.205H16.94V54h1.641V50.363z M18.581,45.168h1.23   c0.419,0,0.756,0.066,1.012,0.198c0.255,0.132,0.453,0.296,0.595,0.492c0.141,0.196,0.234,0.401,0.28,0.615   c0.045,0.214,0.068,0.403,0.068,0.567c0,0.41-0.05,0.754-0.15,1.032c-0.101,0.278-0.232,0.494-0.396,0.649s-0.344,0.267-0.54,0.335   c-0.196,0.068-0.395,0.103-0.595,0.103h-1.504V45.168z" fill="#666666"/>
	<path d="M26.853,50.363h1.217c0.528,0,1.012-0.077,1.449-0.232s0.811-0.374,1.121-0.656c0.31-0.282,0.551-0.631,0.725-1.046   c0.173-0.415,0.26-0.877,0.26-1.388c0-0.483-0.103-0.918-0.308-1.306s-0.474-0.718-0.807-0.991   c-0.333-0.273-0.709-0.479-1.128-0.615c-0.419-0.137-0.843-0.205-1.271-0.205h-2.898V54h1.641V50.363z M26.853,45.168h1.23   c0.419,0,0.756,0.066,1.012,0.198c0.255,0.132,0.453,0.296,0.595,0.492c0.141,0.196,0.234,0.401,0.28,0.615   c0.045,0.214,0.068,0.403,0.068,0.567c0,0.41-0.05,0.754-0.15,1.032c-0.101,0.278-0.232,0.494-0.396,0.649s-0.344,0.267-0.54,0.335   c-0.196,0.068-0.395,0.103-0.595,0.103h-1.504V45.168z" fill="#666666"/>
	<polygon points="35.944,54 37.599,54 37.599,45.045 40.606,45.045 40.606,43.924 32.937,43.924 32.937,45.045 35.944,45.045  " fill="#666666"/>
	<circle cx="20.5" cy="19" r="1" fill="#666666"/>
	<circle cx="20.5" cy="27" r="1" fill="#666666"/>
	<circle cx="20.5" cy="23" r="1" fill="#666666"/>
	<circle cx="22.5" cy="21" r="1" fill="#666666"/>
	<circle cx="24.5" cy="19" r="1" fill="#666666"/>
	<circle cx="22.5" cy="25" r="1" fill="#666666"/>
	<circle cx="24.5" cy="27" r="1" fill="#666666"/>
	<circle cx="24.5" cy="23" r="1" fill="#666666"/>
	<circle cx="26.5" cy="21" r="1" fill="#666666"/>
	<circle cx="28.5" cy="19" r="1" fill="#666666"/>
	<circle cx="26.5" cy="25" r="1" fill="#666666"/>
	<circle cx="28.5" cy="27" r="1" fill="#666666"/>
	<circle cx="28.5" cy="23" r="1" fill="#666666"/>
	<circle cx="30.5" cy="21" r="1" fill="#666666"/>
	<circle cx="32.5" cy="19" r="1" fill="#666666"/>
	<circle cx="30.5" cy="25" r="1" fill="#666666"/>
	<circle cx="32.5" cy="27" r="1" fill="#666666"/>
	<circle cx="32.5" cy="23" r="1" fill="#666666"/>
	<circle cx="34.5" cy="21" r="1" fill="#666666"/>
	<circle cx="36.5" cy="19" r="1" fill="#666666"/>
	<circle cx="34.5" cy="25" r="1" fill="#666666"/>
	<circle cx="36.5" cy="27" r="1" fill="#666666"/>
	<circle cx="36.5" cy="23" r="1" fill="#666666"/>
	<path d="M29.5,13c0-0.553-0.448-1-1-1s-1,0.447-1,1v2h-11v16h6.234l-2.091,3.485c-0.284,0.474-0.131,1.088,0.343,1.372   C21.146,35.954,21.324,36,21.499,36c0.34,0,0.671-0.173,0.858-0.485L25.066,31h6.868l2.709,4.515C34.83,35.827,35.161,36,35.501,36   c0.175,0,0.353-0.046,0.514-0.143c0.474-0.284,0.627-0.898,0.343-1.372L34.266,31H40.5V15h-11V13z M33.5,17c0,0.552,0.448,1,1,1   s1-0.448,1-1h2c0,0.552,0.448,1,1,1v2c-0.552,0-1,0.448-1,1c0,0.552,0.448,1,1,1v2c-0.552,0-1,0.448-1,1c0,0.552,0.448,1,1,1v2   c-0.552,0-1,0.448-1,1h-2c0-0.552-0.448-1-1-1s-1,0.448-1,1h-2c0-0.552-0.448-1-1-1s-1,0.448-1,1h-2c0-0.552-0.448-1-1-1   s-1,0.448-1,1h-2c0-0.552-0.448-1-1-1s-1,0.448-1,1h-2c0-0.552-0.448-1-1-1v-2c0.552,0,1-0.448,1-1c0-0.552-0.448-1-1-1v-2   c0.552,0,1-0.448,1-1c0-0.552-0.448-1-1-1v-2c0.552,0,1-0.448,1-1h2c0,0.552,0.448,1,1,1s1-0.448,1-1h2c0,0.552,0.448,1,1,1   s1-0.448,1-1h2c0,0.552,0.448,1,1,1s1-0.448,1-1H33.5z" fill="#666666"/>
</g>
<g>
</g>
<g>
</g>
<g>
</g>
<g>
</g>
<g>
</g>
<g>
</g>
<g>
</g>
<g>
</g>
<g>
</g>
<g>
</g>
<g>
</g>
<g>
</g>
<g>
</g>
<g>
</g>
<g>
</g>
</svg>
