<?xml version="1.0" encoding="iso-8859-1"?>
<!-- Generator: Adobe Illustrator 18.0.0, SVG Export Plug-In . SVG Version: 6.00 Build 0)  -->
<!DOCTYPE svg PUBLIC "-//W3C//DTD SVG 1.1//EN" "http://www.w3.org/Graphics/SVG/1.1/DTD/svg11.dtd">
<svg xmlns="http://www.w3.org/2000/svg" xmlns:xlink="http://www.w3.org/1999/xlink" version="1.1" id="Capa_1" x="0px" y="0px" viewBox="0 0 58 58" style="enable-background:new 0 0 58 58;" xml:space="preserve" width="512px" height="512px">
<g>
	<path d="M50.95,12.187l-0.77-0.77l0,0L40.084,1.321c0,0-0.001-0.001-0.002-0.001l-0.768-0.768C38.965,0.201,38.48,0,37.985,0H8.963   C7.777,0,6.5,0.916,6.5,2.926V39v16.537V56c0,0.838,0.843,1.654,1.839,1.91c0.05,0.013,0.097,0.032,0.148,0.042   C8.644,57.983,8.803,58,8.963,58h40.074c0.16,0,0.319-0.017,0.475-0.048c0.051-0.01,0.098-0.029,0.148-0.042   C50.657,57.654,51.5,56.838,51.5,56v-0.463V39V13.978C51.5,13.213,51.408,12.646,50.95,12.187z M39.5,3.565L47.935,12H39.5V3.565z    M8.963,56c-0.071,0-0.135-0.025-0.198-0.049C8.609,55.876,8.5,55.72,8.5,55.537V41h41v14.537c0,0.183-0.109,0.339-0.265,0.414   C49.172,55.975,49.108,56,49.037,56H8.963z M8.5,39V2.926C8.5,2.709,8.533,2,8.963,2h28.595C37.525,2.126,37.5,2.256,37.5,2.392V14   h11.609c0.135,0,0.264-0.025,0.39-0.058c0,0.014,0.001,0.02,0.001,0.036V39H8.5z" fill="#666666"/>
	<polygon points="19.566,45.25 24.652,45.25 24.365,45.469 19.566,52.674 19.566,54 26.266,54 26.266,52.674 21.193,52.674    21.467,52.455 26.266,45.25 26.266,43.924 19.566,43.924  " fill="#666666"/>
	<rect x="28.604" y="43.924" width="1.668" height="10.076" fill="#666666"/>
	<path d="M38.071,44.744c-0.333-0.273-0.709-0.479-1.128-0.615c-0.419-0.137-0.843-0.205-1.271-0.205h-2.898V54h1.641v-3.637h1.217   c0.528,0,1.012-0.077,1.449-0.232s0.811-0.374,1.121-0.656c0.31-0.282,0.551-0.631,0.725-1.046c0.173-0.415,0.26-0.877,0.26-1.388   c0-0.483-0.103-0.918-0.308-1.306S38.404,45.018,38.071,44.744z M37.449,48.073c-0.101,0.278-0.232,0.494-0.396,0.649   s-0.344,0.267-0.54,0.335c-0.196,0.068-0.395,0.103-0.595,0.103h-1.504v-3.992h1.23c0.419,0,0.756,0.066,1.012,0.198   c0.255,0.132,0.453,0.296,0.595,0.492c0.141,0.196,0.234,0.401,0.28,0.615c0.045,0.214,0.068,0.403,0.068,0.567   C37.6,47.451,37.549,47.795,37.449,48.073z" fill="#666666"/>
	<path d="M29.5,23h2v-2h-2v-2h2v-2h-2v-2h2v-2h-2v-2h2V9h-2V7h-2v2h-2v2h2v2h-2v2h2v2h-2v2h2v2h-2v2h2v2h-4v5c0,2.757,2.243,5,5,5   s5-2.243,5-5v-5h-4V23z M31.5,30c0,1.654-1.346,3-3,3s-3-1.346-3-3v-3h6V30z" fill="#666666"/>
	<path d="M27.5,31h2c0.552,0,1-0.447,1-1s-0.448-1-1-1h-2c-0.552,0-1,0.447-1,1S26.948,31,27.5,31z" fill="#666666"/>
</g>
<g>
</g>
<g>
</g>
<g>
</g>
<g>
</g>
<g>
</g>
<g>
</g>
<g>
</g>
<g>
</g>
<g>
</g>
<g>
</g>
<g>
</g>
<g>
</g>
<g>
</g>
<g>
</g>
<g>
</g>
</svg>
