<?xml version="1.0" encoding="UTF-8" standalone="no"?>
<svg width="12px" height="12px" viewBox="0 0 12 12" version="1.1" xmlns="http://www.w3.org/2000/svg" xmlns:xlink="http://www.w3.org/1999/xlink">
    <!-- Generator: Sketch 39.1 (31720) - http://www.bohemiancoding.com/sketch -->
    <title>icon-Popup</title>
    <desc>Created with Sketch.</desc>
    <defs></defs>
    <g id="Scrivener" stroke="none" stroke-width="1" fill="none" fill-rule="evenodd">
        <g id="2---Scrivener---Content-Edit" transform="translate(-1125.000000, -444.000000)" fill="#CCCCCC">
            <path d="M1134.21975,445.71975 L1130.46975,449.46975 L1131.53025,450.53025 L1135.28025,446.78025 L1137,448.5 L1137,444 L1132.5,444 L1134.21975,445.71975 Z M1126.5,454.5 L1126.5,445.5 L1131,445.5 L1131,444 L1125.75,444 C1125.336,444 1125,444.336 1125,444.75 L1125,455.25 C1125,455.664 1125.336,456 1125.75,456 L1136.25,456 C1136.664,456 1137,455.664 1137,455.25 L1137,450 L1135.5,450 L1135.5,454.5 L1126.5,454.5 Z" id="icon-Popup"></path>
        </g>
    </g>
</svg>