<?xml version="1.0" encoding="UTF-8" standalone="no"?>
<svg width="14px" height="12px" viewBox="0 0 14 12" version="1.1" xmlns="http://www.w3.org/2000/svg" xmlns:xlink="http://www.w3.org/1999/xlink">
    <!-- Generator: Sketch 39.1 (31720) - http://www.bohemiancoding.com/sketch -->
    <title>icon-Hammer</title>
    <desc>Created with Sketch.</desc>
    <defs></defs>
    <g id="Symbols" stroke="none" stroke-width="1" fill="none" fill-rule="evenodd">
        <g id="Sidebar" transform="translate(-25.000000, -129.000000)" fill="#999999">
            <g id="Button---Active">
                <g transform="translate(0.000000, 110.000000)">
                    <path d="M30.7023643,22.2869112 L30.8090981,22.1912898 C30.9173405,22.0943169 30.9718401,21.9548477 30.9584675,21.8083712 C30.8764657,20.9179837 32.5021188,19.9066626 33.4773087,19.4486974 L33.6561987,19.3553412 L33.5459379,19 L33.3445921,19.0038427 C30.5661207,19.0583194 29.5059012,20.1557632 29.4771375,20.1880875 L27.8714172,21.6266318 C27.2979096,22.1402038 27.2648566,22.5048129 27.3534185,22.7299527 L26.6804996,23.3328122 C26.650979,23.3590333 26.6166644,23.3631021 26.5987502,23.3631021 C26.5810883,23.3631021 26.5467737,23.3590333 26.517253,23.3328122 L26.3794901,23.2093921 C26.2106927,23.0581687 25.915991,23.0583947 25.7476982,23.2093921 L25.1305405,23.7622959 C24.9564445,23.9182662 24.9564445,24.1723397 25.1307928,24.3283101 L26.6398772,25.6802795 C26.7241498,25.7557783 26.8364291,25.7973704 26.9557731,25.7973704 C27.0753695,25.7973704 27.1873965,25.7557783 27.2716691,25.6802795 L27.8888268,25.1273758 C28.0626705,24.9714054 28.0629228,24.717558 27.8885745,24.5613615 L27.7510639,24.4379415 C27.7215433,24.4117204 27.7172539,24.3809784 27.7172539,24.3649293 C27.7172539,24.3488801 27.7215433,24.3181382 27.7510639,24.291691 L28.4156565,23.696517 C28.4159088,23.6967431 28.4161611,23.6967431 28.4164134,23.6969691 C28.4979105,23.7288413 28.5854632,23.7451165 28.6768005,23.7451165 C28.8874966,23.7451165 29.0911184,23.6567057 29.2590156,23.5512954 L37.277648,30.7353024 C37.4683967,30.9059657 37.721719,31 37.9914416,31 C38.2611643,31 38.5142343,30.9059657 38.704983,30.7353024 C39.098339,30.3826737 39.098339,29.8092 38.704983,29.4565713 L30.7023643,22.2869112 Z" id="icon-Hammer"></path>
                </g>
            </g>
        </g>
    </g>
</svg>