<?xml version="1.0" encoding="UTF-8" standalone="no"?>
<svg width="12px" height="12px" viewBox="0 0 12 12" version="1.1" xmlns="http://www.w3.org/2000/svg" xmlns:xlink="http://www.w3.org/1999/xlink">
    <!-- Generator: Sketch 39.1 (31720) - http://www.bohemiancoding.com/sketch -->
    <title>icon-Popup</title>
    <desc>Created with Sketch.</desc>
    <defs></defs>
    <g id="Symbols" stroke="none" stroke-width="1" fill="none" fill-rule="evenodd">
        <g id="Sidebar" transform="translate(-205.000000, -129.000000)" fill="#CCCCCC">
            <g id="Button---Active">
                <g transform="translate(0.000000, 110.000000)">
                    <path d="M214.21975,20.71975 L210.46975,24.46975 L211.53025,25.53025 L215.28025,21.78025 L217,23.5 L217,19 L212.5,19 L214.21975,20.71975 Z M206.5,29.5 L206.5,20.5 L211,20.5 L211,19 L205.75,19 C205.336,19 205,19.336 205,19.75 L205,30.25 C205,30.664 205.336,31 205.75,31 L216.25,31 C216.664,31 217,30.664 217,30.25 L217,25 L215.5,25 L215.5,29.5 L206.5,29.5 Z" id="icon-Popup"></path>
                </g>
            </g>
        </g>
    </g>
</svg>