<?xml version="1.0" encoding="UTF-8" standalone="no"?>
<svg width="14px" height="14px" viewBox="0 0 14 14" version="1.1" xmlns="http://www.w3.org/2000/svg" xmlns:xlink="http://www.w3.org/1999/xlink">
    <!-- Generator: Sketch 39.1 (31720) - http://www.bohemiancoding.com/sketch -->
    <title>icon-Add</title>
    <desc>Created with Sketch.</desc>
    <defs></defs>
    <g id="Symbols" stroke="none" stroke-width="1" fill="none" fill-rule="evenodd">
        <g id="Sidebar" transform="translate(-25.000000, -178.000000)" fill="#666666">
            <g id="icon-Add">
                <path d="M31.125,185.875 L31.125,191.125 C31.125,191.608 31.517,192 32,192 C32.483,192 32.875,191.608 32.875,191.125 L32.875,185.875 L38.125,185.875 C38.608,185.875 39,185.483 39,185 C39,184.517 38.608,184.125 38.125,184.125 L32.875,184.125 L32.875,178.875 C32.875,178.392 32.483,178 32,178 C31.517,178 31.125,178.392 31.125,178.875 L31.125,184.125 L25.875,184.125 C25.392,184.125 25,184.517 25,185 C25,185.483 25.392,185.875 25.875,185.875 L31.125,185.875 Z"></path>
            </g>
        </g>
    </g>
</svg>