<?xml version="1.0" encoding="UTF-8" standalone="no"?>
<svg width="9px" height="15px" viewBox="0 0 9 15" version="1.1" xmlns="http://www.w3.org/2000/svg" xmlns:xlink="http://www.w3.org/1999/xlink">
    <!-- Generator: Sketch 39.1 (31720) - http://www.bohemiancoding.com/sketch -->
    <title>?</title>
    <desc>Created with Sketch.</desc>
    <defs></defs>
    <g id="Symbols" stroke="none" stroke-width="1" fill="none" fill-rule="evenodd">
        <g id="Sidebar" transform="translate(-116.000000, -1077.000000)" fill="#CCCCCC">
            <g id="Button---Help">
                <g transform="translate(104.000000, 1068.000000)">
                    <path d="M14.6348684,19.3075397 L14.6348684,18.672619 C14.6348684,17.9451022 14.7664461,17.3399495 15.0296053,16.8571429 C15.2927645,16.3743362 15.7532862,15.8750026 16.4111842,15.359127 C17.1940829,14.7374308 17.699012,14.2546313 17.9259868,13.9107143 C18.1529617,13.5667972 18.2664474,13.1567484 18.2664474,12.6805556 C18.2664474,12.1249972 18.0822387,11.6984142 17.7138158,11.4007937 C17.3453929,11.1031731 16.8157929,10.9543651 16.125,10.9543651 C15.4999969,10.9543651 14.9210553,11.0436499 14.3881579,11.2222222 C13.8552605,11.4007945 13.3355288,11.6157395 12.8289474,11.8670635 L12,10.1210317 C13.335533,9.37367351 14.7664397,9 16.2927632,9 C17.5822433,9 18.6052594,9.31745714 19.3618421,9.95238095 C20.1184248,10.5873048 20.4967105,11.4636188 20.4967105,12.5813492 C20.4967105,13.0773834 20.4243428,13.5188473 20.2796053,13.905754 C20.1348677,14.2926607 19.9161199,14.6613739 19.6233553,15.0119048 C19.3305906,15.3624356 18.8256615,15.8187803 18.1085526,16.3809524 C17.4967075,16.863759 17.0871721,17.2638873 16.8799342,17.5813492 C16.6726963,17.8988111 16.5690789,18.3253941 16.5690789,18.8611111 L16.5690789,19.3075397 L14.6348684,19.3075397 Z M14.2302632,22.4722222 C14.2302632,21.47354 14.713811,20.9742063 15.6809211,20.9742063 C16.1546076,20.9742063 16.5164461,21.1048267 16.7664474,21.3660714 C17.0164486,21.6273161 17.1414474,21.9960294 17.1414474,22.4722222 C17.1414474,22.9418013 17.0148039,23.3138214 16.7615132,23.5882937 C16.5082224,23.8627659 16.1480287,24 15.6809211,24 C15.2138135,24 14.8552644,23.8660728 14.6052632,23.5982143 C14.3552619,23.3303558 14.2302632,22.9550289 14.2302632,22.4722222 L14.2302632,22.4722222 Z" id="?"></path>
                </g>
            </g>
        </g>
    </g>
</svg>