<?xml version="1.0" encoding="UTF-8" standalone="no"?>
<svg width="42px" height="48px" viewBox="0 0 42 48" version="1.1" xmlns="http://www.w3.org/2000/svg" xmlns:xlink="http://www.w3.org/1999/xlink">
    <!-- Generator: Sketch 39.1 (31720) - http://www.bohemiancoding.com/sketch -->
    <title>icon-Bitbucket</title>
    <desc>Created with Sketch.</desc>
    <defs></defs>
    <g id="Scrivener" stroke="none" stroke-width="1" fill="none" fill-rule="evenodd">
        <g id="1---Scrivener---Sharing" transform="translate(-979.000000, -612.000000)" fill="#205081">
            <g id="Group-2" transform="translate(620.000000, 596.000000)">
                <g id="icon-Bitbucket" transform="translate(359.000000, 16.000000)">
                    <path d="M20.897561,2.4018346e-15 L20.897561,2.4018346e-15 L20.897561,2.4018346e-15 C9.3902439,2.4018346e-15 0,3.07605634 0,6.86197183 C0,7.87605634 2.49268293,22.2084507 3.51707317,27.9211268 C3.96097561,30.4901408 10.6195122,34.2084507 20.897561,34.2084507 L20.897561,34.1746479 L20.897561,34.2084507 C31.1756098,34.2084507 37.8341463,30.456338 38.2780488,27.9211268 C39.2682927,22.2422535 41.795122,7.87605634 41.795122,6.86197183 C41.7609756,3.07605634 32.3707317,2.4018346e-15 20.897561,2.4018346e-15 L20.897561,2.4018346e-15 Z M20.897561,29.6112676 C17.2439024,29.6112676 14.2731707,26.6704225 14.2731707,23.0535211 C14.2731707,19.4366197 17.2439024,16.4957746 20.897561,16.4957746 C24.5512195,16.4957746 27.5219512,19.4366197 27.5219512,23.0535211 C27.5219512,26.6704225 24.5512195,29.6112676 20.897561,29.6112676 L20.897561,29.6112676 Z M20.897561,8.9915493 C13.5219512,8.9915493 7.51219512,7.70704225 7.51219512,6.15211268 C7.51219512,4.5971831 13.5219512,3.34647887 20.897561,3.34647887 C28.2731707,3.34647887 34.2829268,4.63098592 34.2829268,6.18591549 C34.2487805,7.74084507 28.2731707,8.9915493 20.897561,8.9915493 L20.897561,8.9915493 Z" id="Shape"></path>
                    <path d="M35.8878049,33.6338028 C35.5804878,33.6338028 35.3073171,33.8704225 35.3073171,33.8704225 C35.3073171,33.8704225 30.1512195,37.8929577 20.8634146,37.8929577 C11.5756098,37.8929577 6.4195122,33.8704225 6.4195122,33.8704225 C6.4195122,33.8704225 6.1804878,33.6338028 5.83902439,33.6338028 C5.46341463,33.6338028 5.08780488,33.8704225 5.08780488,34.4450704 L5.08780488,34.6140845 C5.87317073,38.8394366 6.45365854,41.8478873 6.55609756,42.2873239 C7.23902439,45.3971831 13.3853659,47.7633803 20.795122,47.7633803 L20.795122,47.7633803 L20.795122,47.7633803 L20.795122,47.7633803 L20.795122,47.7633803 C28.204878,47.7633803 34.3512195,45.4309859 35.0341463,42.2873239 C35.1365854,41.8140845 35.7170732,38.8394366 36.502439,34.6140845 L36.502439,34.4450704 C36.6390244,33.8704225 36.2634146,33.6338028 35.8878049,33.6338028 L35.8878049,33.6338028 Z" id="Shape"></path>
                    <ellipse id="Oval" cx="20.897561" cy="23.0197183" rx="3.31219512" ry="3.27887324"></ellipse>
                </g>
            </g>
        </g>
    </g>
</svg>
