<?xml version="1.0" encoding="UTF-8" standalone="no"?>
<svg width="48px" height="48px" viewBox="0 0 48 48" version="1.1" xmlns="http://www.w3.org/2000/svg" xmlns:xlink="http://www.w3.org/1999/xlink">
    <!-- Generator: Sketch 39.1 (31720) - http://www.bohemiancoding.com/sketch -->
    <title>icon-Github</title>
    <desc>Created with Sketch.</desc>
    <defs></defs>
    <g id="Scrivener" stroke="none" stroke-width="1" fill="none" fill-rule="evenodd">
        <g id="1---Scrivener---Sharing" transform="translate(-816.000000, -612.000000)" fill="#191717">
            <g id="Group-2" transform="translate(620.000000, 596.000000)">
                <g id="icon-Github" transform="translate(196.000000, 16.000000)">
                    <path d="M23.99845,0.59265 C10.74637,0.59265 0,11.33769 0,24.59404 C0,35.19662 6.87606,44.19208 16.41386,47.36608 C17.6139,47.5862 18.05192,46.84526 18.05192,46.20922 C18.05192,45.63948 18.03115,44.13019 18.01951,42.12734 C11.34353,43.57769 9.93488,38.91016 9.93488,38.91016 C8.84357,36.13763 7.27019,35.39949 7.27019,35.39949 C5.09112,33.91039 7.43506,33.94059 7.43506,33.94059 C9.84353,34.11032 11.11118,36.41388 11.11118,36.41388 C13.25209,40.08146 16.72828,39.02242 18.09583,38.40804 C18.31388,36.85706 18.93387,35.7995 19.61956,35.19955 C14.29021,34.59386 8.68755,32.53487 8.68755,23.33801 C8.68755,20.71797 9.62268,18.5756 11.15789,16.89791 C10.91111,16.29075 10.08751,13.85061 11.39318,10.54636 C11.39318,10.54636 13.40826,9.90104 17.99299,13.00669 C19.9073,12.47437 21.96039,12.20814 24.00141,12.19886 C26.03948,12.20814 28.09272,12.47437 30.00983,13.00669 C34.59176,9.90104 36.60316,10.54636 36.60316,10.54636 C37.91251,13.85061 37.08877,16.29075 36.84199,16.89791 C38.38015,18.5756 39.30894,20.71798 39.30894,23.33801 C39.30894,32.55786 33.69759,34.58664 28.351,35.18084 C29.21275,35.92178 29.98036,37.38657 29.98036,39.62531 C29.98036,42.83379 29.95089,45.4223 29.95089,46.20921 C29.95089,46.85099 30.38317,47.59768 31.60118,47.36327 C41.12967,44.18338 48,35.19382 48,24.59404 C48,11.33769 37.25348,0.59265 23.99845,0.59265 L23.99845,0.59265 Z" id="Shape"></path>
                </g>
            </g>
        </g>
    </g>
</svg>