<?xml version="1.0" encoding="UTF-8" standalone="no"?>
<svg width="14px" height="14px" viewBox="0 0 14 14" version="1.1" xmlns="http://www.w3.org/2000/svg" xmlns:xlink="http://www.w3.org/1999/xlink">
    <!-- Generator: Sketch 39.1 (31720) - http://www.bohemiancoding.com/sketch -->
    <title>icon-Add</title>
    <desc>Created with Sketch.</desc>
    <defs></defs>
    <g id="Scrivener" stroke="none" stroke-width="1" fill="none" fill-rule="evenodd">
        <g id="2---Scrivener---Model" transform="translate(-1111.000000, -310.000000)" fill="#666666">
            <path d="M1111.875,317.875 L1117.125,317.875 L1117.125,323.125 C1117.125,323.608 1117.517,324 1118,324 C1118.483,324 1118.875,323.608 1118.875,323.125 L1118.875,317.875 L1124.125,317.875 C1124.608,317.875 1125,317.483 1125,317 C1125,316.517 1124.608,316.125 1124.125,316.125 L1118.875,316.125 L1118.875,310.875 C1118.875,310.392 1118.483,310 1118,310 C1117.517,310 1117.125,310.392 1117.125,310.875 L1117.125,316.125 L1111.875,316.125 C1111.392,316.125 1111,316.517 1111,317 C1111,317.483 1111.392,317.875 1111.875,317.875 L1111.875,317.875 Z" id="icon-Add"></path>
        </g>
    </g>
</svg>