<?xml version="1.0" encoding="UTF-8" standalone="no"?>
<svg width="48px" height="48px" viewBox="0 0 48 48" version="1.1" xmlns="http://www.w3.org/2000/svg" xmlns:xlink="http://www.w3.org/1999/xlink">
    <!-- Generator: Sketch 39.1 (31720) - http://www.bohemiancoding.com/sketch -->
    <title>icon-Slack</title>
    <desc>Created with Sketch.</desc>
    <defs></defs>
    <g id="Scrivener" stroke="none" stroke-width="1" fill="none" fill-rule="evenodd">
        <g id="1---Scrivener---Sharing" transform="translate(-656.000000, -612.000000)">
            <g id="Group-2" transform="translate(620.000000, 596.000000)">
                <g id="icon-Slack" transform="translate(36.000000, 16.000000)">
                    <g id="Group">
                        <path d="M31.12806,2.95564 C30.39833,0.70976 27.98613,-0.51931 25.74027,0.21042 C23.49441,0.94015 22.26532,3.35234 22.99505,5.59821 L34.05138,39.61482 C34.81043,41.71296 37.07685,42.89199 39.25252,42.26575 C41.52183,41.61255 42.90534,39.20235 42.18108,36.97332 C42.15357,36.88866 31.12806,2.95564 31.12806,2.95564 L31.12806,2.95564 Z" id="Shape" fill="#E8A723"></path>
                        <path d="M13.99657,8.522 C13.26684,6.27612 10.85464,5.04705 8.60878,5.77678 C6.36292,6.50651 5.13383,8.9187 5.86356,11.16458 L16.91989,45.18119 C17.67894,47.27933 19.94536,48.45837 22.12103,47.83212 C24.39034,47.17891 25.77384,44.76872 25.04959,42.53969 C25.02208,42.45502 13.99657,8.522 13.99657,8.522 L13.99657,8.522 Z" id="Shape" fill="#3EB890"></path>
                        <path d="M45.04435,31.12819 C47.29023,30.39846 48.5193,27.98626 47.78957,25.7404 C47.05984,23.49454 44.64765,22.26545 42.40178,22.99518 L8.38517,34.05151 C6.28703,34.81056 5.108,37.07698 5.73424,39.25265 C6.38744,41.52196 8.79764,42.90546 11.02667,42.18121 C11.11134,42.1537 45.04435,31.12819 45.04435,31.12819 L45.04435,31.12819 Z" id="Shape" fill="#E01765"></path>
                        <path d="M15.47503,40.73585 C17.68919,40.01643 20.54302,39.08916 23.60517,38.09421 C22.88578,35.88014 21.9584,33.02599 20.96327,29.96329 L12.8326,32.60597 L15.47503,40.73585 L15.47503,40.73585 Z" id="Shape" fill="#472A49"></path>
                        <path d="M32.60652,35.16949 C35.68029,34.17076 38.53704,33.24255 40.73665,32.52785 C40.01713,30.31339 39.08955,27.45859 38.09421,24.39526 L29.96354,27.03794 L32.60652,35.16949 L32.60652,35.16949 Z" id="Shape" fill="#CC2027"></path>
                        <path d="M39.478,13.9967 C41.72388,13.26697 42.95295,10.85477 42.22322,8.60891 C41.49349,6.36304 39.0813,5.13396 36.83542,5.86369 L2.81881,16.92002 C0.72067,17.67907 -0.45836,19.94549 0.16788,22.12116 C0.82108,24.39047 3.23128,25.77397 5.46031,25.04972 C5.54498,25.02221 39.478,13.9967 39.478,13.9967 L39.478,13.9967 Z" id="Shape" fill="#70CADB"></path>
                        <path d="M9.907,23.6049 C12.12139,22.8854 14.97588,21.95792 18.0388,20.96272 C17.04002,17.88881 16.11173,15.03182 15.3969,12.8318 L7.26457,15.47502 L9.907,23.6049 L9.907,23.6049 Z" id="Shape" fill="#1A937D"></path>
                        <path d="M27.03849,18.03854 C30.11291,17.0396 32.97029,16.11118 35.1703,15.39636 C34.17127,12.32168 33.24276,9.46401 32.52786,7.26377 L24.39553,9.907 L27.03849,18.03854 L27.03849,18.03854 Z" id="Shape" fill="#65863A"></path>
                    </g>
                </g>
            </g>
        </g>
    </g>
</svg>